<svg id="Capa_1" enable-background="new 0 0 512 512" height="512" viewBox="0 0 512 512" width="512" xmlns="http://www.w3.org/2000/svg"><g><g><path d="m20.645 379.383h467.612l14.161-14.161v-221.542c0-17.426-18.242-20.644-29.643-20.645h-452.13c-11.402 0-20.645 9.244-20.645 20.645v206.057c0 11.402 2.259 29.646 20.645 29.646z" fill="#a6aec4"/><path d="m491.354 123.035h-18.581c11.402 0 20.645 9.243 20.645 20.645v221.541c0 2.85-2.311 5.161-5.161 5.161h-467.612c-11.402.001-20.645-9.243-20.645-20.645v18.581c0 11.402 9.243 20.645 20.645 20.645h470.709c11.139.142 20.766-9.342 20.645-20.645v-224.638c0-11.402-9.243-20.645-20.645-20.645z" fill="#959db0"/></g><g><g fill="#eceaec"><path d="m330.669 176.17h-17.98c-2.851 0-5.161 2.311-5.161 5.161v17.98c0 2.85 2.311 5.161 5.161 5.161h17.98c2.85 0 5.161-2.311 5.161-5.161v-17.98c.001-2.851-2.31-5.161-5.161-5.161z"/><path d="m268.903 292.044h17.98c2.85 0 5.161-2.311 5.161-5.161v-17.98c0-2.85-2.311-5.161-5.161-5.161h-17.98c-2.85 0-5.161 2.311-5.161 5.161v17.98c0 2.851 2.311 5.161 5.161 5.161z"/><path d="m312.69 292.044h17.98c2.85 0 5.161-2.311 5.161-5.161v-17.98c0-2.85-2.311-5.161-5.161-5.161h-17.98c-2.851 0-5.161 2.311-5.161 5.161v17.98c-.001 2.851 2.31 5.161 5.161 5.161z"/><path d="m286.883 219.956h-17.98c-2.85 0-5.161 2.311-5.161 5.161v17.98c0 2.85 2.311 5.161 5.161 5.161h17.98c2.85 0 5.161-2.311 5.161-5.161v-17.98c0-2.851-2.31-5.161-5.161-5.161z"/><path d="m243.097 176.17h-17.98c-2.851 0-5.161 2.311-5.161 5.161v17.98c0 2.85 2.311 5.161 5.161 5.161h17.98c2.851 0 5.161-2.311 5.161-5.161v-17.98c0-2.851-2.311-5.161-5.161-5.161z"/><path d="m243.097 219.956h-17.98c-2.851 0-5.161 2.311-5.161 5.161v17.98c0 2.85 2.311 5.161 5.161 5.161h17.98c2.851 0 5.161-2.311 5.161-5.161v-17.98c0-2.851-2.311-5.161-5.161-5.161z"/><path d="m225.117 292.044h17.98c2.851 0 5.161-2.311 5.161-5.161v-17.98c0-2.85-2.311-5.161-5.161-5.161h-17.98c-2.851 0-5.161 2.311-5.161 5.161v17.98c0 2.851 2.31 5.161 5.161 5.161z"/><path d="m400.262 335.83h17.98c2.85 0 5.161-2.311 5.161-5.161v-17.98c0-2.851-2.311-5.161-5.161-5.161h-17.98c-2.85 0-5.161 2.311-5.161 5.161v17.98c0 2.851 2.311 5.161 5.161 5.161z"/><path d="m111.738 176.17h-17.98c-2.851 0-5.161 2.311-5.161 5.161v17.98c0 2.85 2.311 5.161 5.161 5.161h17.98c2.851 0 5.161-2.311 5.161-5.161v-17.98c.001-2.851-2.31-5.161-5.161-5.161z"/><path d="m199.31 219.956h-17.98c-2.851 0-5.161 2.311-5.161 5.161v17.98c0 2.85 2.311 5.161 5.161 5.161h17.98c2.851 0 5.161-2.311 5.161-5.161v-17.98c.001-2.851-2.31-5.161-5.161-5.161z"/><path d="m400.262 248.258h61.772c2.85 0 5.161-2.311 5.161-5.161v-17.98c0-2.85-2.311-5.161-5.161-5.161h-61.772c-2.85 0-5.161 2.311-5.161 5.161v17.98c0 2.85 2.311 5.161 5.161 5.161z"/><path d="m374.456 176.17h-17.98c-2.85 0-5.161 2.311-5.161 5.161v17.98c0 2.85 2.311 5.161 5.161 5.161h17.98c2.85 0 5.161-2.311 5.161-5.161v-17.98c0-2.851-2.311-5.161-5.161-5.161z"/><path d="m356.476 248.258h17.98c2.85 0 5.161-2.311 5.161-5.161v-17.98c0-2.85-2.311-5.161-5.161-5.161h-17.98c-2.85 0-5.161 2.311-5.161 5.161v17.98c0 2.85 2.31 5.161 5.161 5.161z"/><path d="m395.101 181.331v17.98c0 2.85 2.311 5.161 5.161 5.161h17.98c2.85 0 5.161-2.311 5.161-5.161v-17.98c0-2.85-2.311-5.161-5.161-5.161h-17.98c-2.85 0-5.161 2.31-5.161 5.161z"/><path d="m330.669 219.956h-17.98c-2.851 0-5.161 2.311-5.161 5.161v17.98c0 2.85 2.311 5.161 5.161 5.161h17.98c2.85 0 5.161-2.311 5.161-5.161v-17.98c.001-2.851-2.31-5.161-5.161-5.161z"/><path d="m286.883 176.17h-17.98c-2.85 0-5.161 2.311-5.161 5.161v17.98c0 2.85 2.311 5.161 5.161 5.161h17.98c2.85 0 5.161-2.311 5.161-5.161v-17.98c0-2.851-2.31-5.161-5.161-5.161z"/><path d="m462.034 263.742h-105.558c-2.85 0-5.161 2.311-5.161 5.161v17.98c0 2.85 2.311 5.161 5.161 5.161h105.559c2.85 0 5.161-2.311 5.161-5.161v-17.98c0-2.85-2.311-5.161-5.162-5.161z"/><path d="m444.048 204.472h17.986c2.85 0 5.161-2.311 5.161-5.161v-17.98c0-2.85-2.311-5.161-5.161-5.161h-17.986c-2.85 0-5.161 2.311-5.161 5.161v17.98c0 2.85 2.311 5.161 5.161 5.161z"/><path d="m181.331 292.044h17.98c2.851 0 5.161-2.311 5.161-5.161v-17.98c0-2.85-2.311-5.161-5.161-5.161h-17.98c-2.851 0-5.161 2.311-5.161 5.161v17.98c-.001 2.851 2.31 5.161 5.161 5.161z"/><path d="m73.113 199.311v-17.98c0-2.85-2.311-5.161-5.161-5.161h-17.986c-2.85 0-5.161 2.311-5.161 5.161v17.98c0 2.85 2.311 5.161 5.161 5.161h17.986c2.851 0 5.161-2.311 5.161-5.161z"/><path d="m438.887 312.69v17.98c0 2.85 2.311 5.161 5.161 5.161h17.986c2.85 0 5.161-2.311 5.161-5.161v-17.98c0-2.851-2.311-5.161-5.161-5.161h-17.986c-2.85-.001-5.161 2.31-5.161 5.161z"/><path d="m67.952 307.528h-17.986c-2.85 0-5.161 2.311-5.161 5.161v17.98c0 2.85 2.311 5.161 5.161 5.161h17.986c2.851 0 5.161-2.311 5.161-5.161v-17.98c0-2.85-2.31-5.161-5.161-5.161z"/><path d="m330.669 307.528h-149.338c-2.851 0-5.161 2.311-5.161 5.161v17.98c0 2.85 2.311 5.161 5.161 5.161h149.339c2.85 0 5.161-2.311 5.161-5.161v-17.98c0-2.85-2.311-5.161-5.162-5.161z"/><path d="m374.456 307.528h-17.98c-2.85 0-5.161 2.311-5.161 5.161v17.98c0 2.85 2.311 5.161 5.161 5.161h17.98c2.85 0 5.161-2.311 5.161-5.161v-17.98c0-2.85-2.311-5.161-5.161-5.161z"/><path d="m155.524 307.528h-17.979c-2.85 0-5.161 2.311-5.161 5.161v17.98c0 2.85 2.311 5.161 5.161 5.161h17.979c2.85 0 5.161-2.311 5.161-5.161v-17.98c0-2.85-2.31-5.161-5.161-5.161z"/><path d="m155.524 176.17h-17.979c-2.85 0-5.161 2.311-5.161 5.161v17.98c0 2.85 2.311 5.161 5.161 5.161h17.979c2.85 0 5.161-2.311 5.161-5.161v-17.98c0-2.851-2.31-5.161-5.161-5.161z"/><path d="m199.31 176.17h-17.98c-2.851 0-5.161 2.311-5.161 5.161v17.98c0 2.85 2.311 5.161 5.161 5.161h17.98c2.851 0 5.161-2.311 5.161-5.161v-17.98c.001-2.851-2.31-5.161-5.161-5.161z"/><path d="m137.545 248.258h17.979c2.85 0 5.161-2.311 5.161-5.161v-17.98c0-2.85-2.311-5.161-5.161-5.161h-17.979c-2.85 0-5.161 2.311-5.161 5.161v17.98c0 2.85 2.31 5.161 5.161 5.161z"/><path d="m116.9 330.669v-17.98c0-2.851-2.311-5.161-5.161-5.161h-17.98c-2.851 0-5.161 2.311-5.161 5.161v17.98c0 2.85 2.311 5.161 5.161 5.161h17.98c2.85 0 5.161-2.31 5.161-5.161z"/><path d="m49.966 248.258h61.773c2.851 0 5.161-2.311 5.161-5.161v-17.98c0-2.85-2.311-5.161-5.161-5.161h-61.773c-2.85 0-5.161 2.311-5.161 5.161v17.98c-.001 2.85 2.31 5.161 5.161 5.161z"/><path d="m155.524 263.742h-105.558c-2.85 0-5.161 2.311-5.161 5.161v17.98c0 2.85 2.311 5.161 5.161 5.161h105.559c2.85 0 5.161-2.311 5.161-5.161v-17.98c-.001-2.85-2.311-5.161-5.162-5.161z"/></g></g></g></svg>