<?xml version="1.0" encoding="iso-8859-1"?>
<!-- Generator: Adobe Illustrator 19.0.0, SVG Export Plug-In . SVG Version: 6.00 Build 0)  -->
<svg version="1.1" id="Layer_1" xmlns="http://www.w3.org/2000/svg" xmlns:xlink="http://www.w3.org/1999/xlink" x="0px" y="0px"
	 viewBox="0 0 512.001 512.001" style="enable-background:new 0 0 512.001 512.001;" xml:space="preserve">
<path style="fill:#CCCCCC;" d="M264.848,245.221h-17.696V109.653c0-7.675-6.243-13.92-13.919-13.92
	c-7.675,0-13.919,6.244-13.919,13.92v44.311c0,17.433-14.182,31.615-31.615,31.615s-31.616-14.183-31.616-31.615V37.423h17.696
	v116.542c0,7.675,6.244,13.919,13.92,13.919c7.675,0,13.919-6.244,13.919-13.919v-44.311c0-17.433,14.182-31.616,31.615-31.616
	s31.615,14.183,31.615,31.616V245.221z"/>
<path style="fill:#5FC9ED;" d="M486.051,222.27H25.948C11.617,222.27,0,233.887,0,248.218V448.63
	c0,14.33,11.617,25.948,25.948,25.948h460.104c14.33,0,25.949-11.617,25.949-25.948V248.218
	C512,233.887,500.382,222.27,486.051,222.27z"/>
<g>
	<rect x="123.649" y="398.943" style="fill:#F2F2F2;" width="41.539" height="38.717"/>
	<rect x="208.567" y="354.325" style="fill:#F2F2F2;" width="41.539" height="32.818"/>
	<rect x="176.974" y="309.707" style="fill:#F2F2F2;" width="41.539" height="32.818"/>
	<rect x="230.31" y="309.707" style="fill:#F2F2F2;" width="41.539" height="32.818"/>
	<rect x="101.895" y="354.325" style="fill:#F2F2F2;" width="41.539" height="32.818"/>
	<rect x="123.649" y="309.707" style="fill:#F2F2F2;" width="41.539" height="32.818"/>
	<rect x="155.231" y="354.325" style="fill:#F2F2F2;" width="41.539" height="32.818"/>
	<rect x="390.319" y="398.943" style="fill:#F2F2F2;" width="41.539" height="38.717"/>
	<rect x="368.564" y="259.19" style="fill:#F2F2F2;" width="41.539" height="38.717"/>
	<rect x="315.228" y="354.325" style="fill:#F2F2F2;" width="41.539" height="32.818"/>
	<rect x="283.646" y="309.707" style="fill:#F2F2F2;" width="41.539" height="32.818"/>
	<rect x="336.982" y="309.707" style="fill:#F2F2F2;" width="41.539" height="32.818"/>
	<rect x="261.903" y="354.325" style="fill:#F2F2F2;" width="41.539" height="32.818"/>
	<rect x="443.643" y="398.943" style="fill:#F2F2F2;" width="31.431" height="38.717"/>
	<polygon style="fill:#F2F2F2;" points="111.849,398.938 36.924,398.938 36.924,387.14 90.101,387.14 90.101,354.322 
		36.924,354.322 36.924,342.525 111.849,342.525 111.849,309.707 36.924,309.707 36.924,297.909 90.101,297.909 90.101,259.192 
		36.924,259.192 36.924,437.655 111.849,437.655 	"/>
	<rect x="208.567" y="259.19" style="fill:#F2F2F2;" width="41.539" height="38.717"/>
	<rect x="155.231" y="259.19" style="fill:#F2F2F2;" width="41.539" height="38.717"/>
	<rect x="101.895" y="259.19" style="fill:#F2F2F2;" width="41.539" height="38.717"/>
	<rect x="421.9" y="259.19" style="fill:#F2F2F2;" width="53.183" height="38.717"/>
	<path style="fill:#F2F2F2;" d="M443.646,348.424c0,3.257-2.641,5.899-5.899,5.899h-15.849v32.818h53.178v-77.434h-31.431V348.424z"
		/>
	<rect x="315.228" y="259.19" style="fill:#F2F2F2;" width="41.539" height="38.717"/>
	<rect x="336.982" y="398.943" style="fill:#F2F2F2;" width="41.539" height="38.717"/>
	<rect x="368.564" y="354.325" style="fill:#F2F2F2;" width="41.539" height="32.818"/>
	<rect x="176.974" y="398.943" style="fill:#F2F2F2;" width="148.2" height="38.717"/>
	<rect x="261.903" y="259.19" style="fill:#F2F2F2;" width="41.539" height="38.717"/>
	<rect x="390.319" y="309.707" style="fill:#F2F2F2;" width="41.539" height="32.818"/>
</g>
<g>
</g>
<g>
</g>
<g>
</g>
<g>
</g>
<g>
</g>
<g>
</g>
<g>
</g>
<g>
</g>
<g>
</g>
<g>
</g>
<g>
</g>
<g>
</g>
<g>
</g>
<g>
</g>
<g>
</g>
</svg>
