<?xml version="1.0" encoding="iso-8859-1"?>
<!-- Generator: Adobe Illustrator 19.0.0, SVG Export Plug-In . SVG Version: 6.00 Build 0)  -->
<svg version="1.1" id="Layer_1" xmlns="http://www.w3.org/2000/svg" xmlns:xlink="http://www.w3.org/1999/xlink" x="0px" y="0px"
	 viewBox="0 0 511.996 511.996" style="enable-background:new 0 0 511.996 511.996;" xml:space="preserve">
<path style="fill:#2C3E50;" d="M353.1,88.274v167.721c0,48.754-39.52,88.274-88.274,88.274h-17.655
	c-48.754,0-88.274-39.52-88.274-88.274V88.274C158.896,39.52,198.417,0,247.171,0h17.655C313.579,0,353.1,39.52,353.1,88.274z"/>
<path style="fill:#3F5C6C;" d="M459.029,211.858v26.482c0,9.754-7.901,17.655-17.655,17.655h-17.655
	c0.009,80.93-60.812,148.928-141.239,157.923v62.763h34.339c9.41-0.212,17.452,6.727,18.626,16.066
	c0.874,9.71-6.285,18.29-15.995,19.173c-0.547,0.053-1.103,0.071-1.66,0.071H195.177c-9.41,0.212-17.452-6.727-18.626-16.066
	c-0.874-9.71,6.285-18.29,15.995-19.173c0.556-0.053,1.103-0.071,1.66-0.071h35.31v-62.763
	c-80.427-8.995-141.239-76.993-141.239-157.923H70.622c-9.754,0-17.655-7.901-17.655-17.655v-26.482
	c0-9.754,7.901-17.655,17.655-17.655h17.655v-35.31c0-9.754,7.901-17.655,17.655-17.655s17.655,7.901,17.655,17.655v97.102
	c0,68.254,55.33,123.584,123.584,123.584h17.655c68.254,0,123.584-55.33,123.584-123.584v-97.102
	c0-9.754,7.901-17.655,17.655-17.655c9.754,0,17.655,7.901,17.655,17.655v35.31h17.655
	C451.128,194.204,459.029,202.104,459.029,211.858z"/>
<g>
</g>
<g>
</g>
<g>
</g>
<g>
</g>
<g>
</g>
<g>
</g>
<g>
</g>
<g>
</g>
<g>
</g>
<g>
</g>
<g>
</g>
<g>
</g>
<g>
</g>
<g>
</g>
<g>
</g>
</svg>
