<?xml version="1.0" encoding="iso-8859-1"?>
<!-- Generator: Adobe Illustrator 19.0.0, SVG Export Plug-In . SVG Version: 6.00 Build 0)  -->
<svg version="1.1" id="Layer_1" xmlns="http://www.w3.org/2000/svg" xmlns:xlink="http://www.w3.org/1999/xlink" x="0px" y="0px"
	 viewBox="0 0 511.994 511.994" style="enable-background:new 0 0 511.994 511.994;" xml:space="preserve">
<g>
	<path style="fill:#2C3E50;" d="M352.591,84.698L160.98,276.221c-1.525-6.496-2.292-13.15-2.292-19.831V88.929
		c0-48.678,39.459-88.138,88.138-88.138h17.628C311.528,0.738,350.335,37.685,352.591,84.698z"/>
	<path style="fill:#2C3E50;" d="M352.591,234.267v22.123c0,48.678-39.459,88.138-88.138,88.138h-22.034L352.591,234.267z"/>
</g>
<g>
	<path style="fill:#3F5C6C;" d="M133.041,304.161l-26.441,26.441c-12.163-22.836-18.491-48.335-18.421-74.212H70.551
		c-9.739,0-17.628-7.888-17.628-17.628v-26.441c0-9.739,7.888-17.628,17.628-17.628h17.628v-35.255
		c0-9.739,7.888-17.628,17.628-17.628s17.628,7.888,17.628,17.628v121.718C125.417,289.283,128.66,297.048,133.041,304.161z"/>
	<path style="fill:#3F5C6C;" d="M458.356,212.321v26.441c0,9.739-7.888,17.628-17.628,17.628h-17.628
		c0.009,80.805-60.718,148.697-141.02,157.678v62.666h34.285c9.395-0.211,17.425,6.716,18.597,16.041
		c0.873,9.695-6.275,18.262-15.971,19.143c-0.555,0.053-1.102,0.07-1.657,0.07H194.913c-9.395,0.212-17.425-6.716-18.597-16.041
		c-0.873-9.695,6.275-18.262,15.971-19.143c0.555-0.053,1.102-0.071,1.657-0.071h35.255v-62.666
		c-15.371-1.675-30.407-5.658-44.598-11.81l27.499-27.499c11.273,3.34,22.969,5.033,34.726,5.024h17.628
		c68.148,0,123.393-55.245,123.393-123.393v-57.378l35.255-35.255v30.936h17.628C450.468,194.694,458.356,202.591,458.356,212.321z"
		/>
</g>
<path style="fill:#E64C3C;" d="M506.814,5.163L506.814,5.163c6.884,6.884,6.884,18.042,0,24.925l-476.71,476.71
	c-6.884,6.884-18.042,6.884-24.925,0l0,0c-6.884-6.884-6.884-18.042,0-24.925l476.71-476.71
	C488.773-1.721,499.931-1.721,506.814,5.163z"/>
<g>
</g>
<g>
</g>
<g>
</g>
<g>
</g>
<g>
</g>
<g>
</g>
<g>
</g>
<g>
</g>
<g>
</g>
<g>
</g>
<g>
</g>
<g>
</g>
<g>
</g>
<g>
</g>
<g>
</g>
</svg>
